<svg width="40" height="40" viewBox="0 0 40 40" fill="none" xmlns="http://www.w3.org/2000/svg">
<path d="M13.3334 16.6667L26.6667 16.6667" stroke="#FAFAFA" stroke-width="2" stroke-linecap="round" stroke-linejoin="round"/>
<path d="M11.6666 23.3333L13.3333 23.3333" stroke="#FAFAFA" stroke-width="2" stroke-linecap="round" stroke-linejoin="round"/>
<path d="M26.6666 23.3333L28.3333 23.3333" stroke="#FAFAFA" stroke-width="2" stroke-linecap="round" stroke-linejoin="round"/>
<path d="M5 30V18.7439C5 18.473 5.05502 18.205 5.16171 17.956L9.4805 7.87885C9.79566 7.14348 10.5187 6.66669 11.3188 6.66669H28.6812C29.4813 6.66669 30.2043 7.14348 30.5195 7.87885L34.8383 17.956C34.945 18.205 35 18.473 35 18.7439V30M5 30V34.4C5 34.7314 5.26863 35 5.6 35H11.0667C11.398 35 11.6667 34.7314 11.6667 34.4V30M5 30H11.6667M35 30V34.4C35 34.7314 34.7314 35 34.4 35H28.9333C28.602 35 28.3333 34.7314 28.3333 34.4V30M35 30H28.3333M11.6667 30H28.3333" stroke="#FAFAFA" stroke-width="2"/>
</svg>
