<svg width="24" height="24" viewBox="0 0 24 24" fill="none" xmlns="http://www.w3.org/2000/svg">
<path d="M20.4851 3H16.4934L16.9934 8C16.9934 8 17.9934 9 19.4934 9C20.5704 9 21.3038 8.48445 21.6317 8.1937C21.7624 8.07782 21.8102 7.90091 21.7815 7.72861L21.077 3.50136C21.0288 3.21205 20.7784 3 20.4851 3Z" stroke="black" stroke-width="2"/>
<path d="M16.4934 3L16.9934 8C16.9934 8 15.9934 9 14.4934 9C12.9934 9 11.9934 8 11.9934 8V3H16.4934Z" stroke="black" stroke-width="2"/>
<path d="M11.9934 3V8C11.9934 8 10.9934 9 9.49341 9C7.99341 9 6.99341 8 6.99341 8L7.49341 3H11.9934Z" stroke="black" stroke-width="2"/>
<path d="M7.49325 3H3.50152C3.20822 3 2.9579 3.21205 2.90969 3.50136L2.20514 7.72862C2.17643 7.90091 2.22426 8.07782 2.35495 8.1937C2.68288 8.48445 3.4162 9 4.49323 9C5.99323 9 6.99325 8 6.99325 8L7.49325 3Z" stroke="black" stroke-width="2"/>
<path d="M3 9V19C3 20.1046 3.89543 21 5 21H19C20.1046 21 21 20.1046 21 19V9" stroke="black" stroke-width="1.5"/>
<path d="M14.8333 21V15C14.8333 13.8954 13.9378 13 12.8333 13H10.8333C9.72868 13 8.83325 13.8954 8.83325 15V21" stroke="black" stroke-width="1.5" stroke-miterlimit="16"/>
</svg>
