<svg width="24" height="24" viewBox="0 0 24 24" fill="none" xmlns="http://www.w3.org/2000/svg">
<path d="M22.0001 7C22.0001 7 22.5001 3 18.0001 3C13.5 3 14.0001 7 14.0001 7M22.0001 7H14.0001M22.0001 7L21.7858 10M14.0001 7L14.2144 10M21.7858 10L21.1991 18.2137C21.087 19.7837 19.7806 21 18.2067 21H17.7934C16.2195 21 14.9132 19.7837 14.8011 18.2137L14.2144 10M21.7858 10H14.2144" stroke="black" stroke-width="2" stroke-linecap="round" stroke-linejoin="round"/>
<path d="M10.0001 7C10.0001 7 10.5001 3 6.00007 3C1.5 3 2.00007 7 2.00007 7M10.0001 7H2.00007M10.0001 7L9.78579 10M2.00007 7L2.21436 10M9.78579 10L9.19909 18.2137C9.08695 19.7837 7.78063 21 6.20671 21H5.79343C4.21951 21 2.91319 19.7837 2.80105 18.2137L2.21436 10M9.78579 10H2.21436" stroke="black" stroke-width="2" stroke-linecap="round" stroke-linejoin="round"/>
</svg>
