<svg width="24" height="24" viewBox="0 0 24 24" fill="none" xmlns="http://www.w3.org/2000/svg">
<path d="M10.8351 15.2894L11.8184 15.4715L10.8351 15.2894ZM10.4771 14.582L10.9854 13.7208L10.4771 14.582ZM10.2016 21.8286L10.3864 20.8458L10.2016 21.8286ZM9.75001 21.1507L10.7333 21.3327L9.75001 21.1507ZM16.8489 19.8141L17.8317 19.6293L16.8489 19.8141ZM17.7212 20.1916L17.1479 19.3722L17.7212 20.1916ZM7.87166 15.9841L6.8889 15.7993L7.87166 15.9841ZM7.73203 15.4643L6.95687 16.0961L7.73203 15.4643ZM13.5232 14.582L14.0316 15.4432L13.5232 14.582ZM13.1652 15.2894L14.1485 15.1074L13.1652 15.2894ZM16.268 15.4643L15.4928 14.8325L16.268 15.4643ZM16.1283 15.9842L17.1111 15.7993L16.1283 15.9842ZM14.2501 21.1513L13.2668 21.3333L14.2501 21.1513ZM13.7972 21.8297L13.9805 22.8128L13.7972 21.8297ZM6.27883 20.1916L5.70557 21.011L6.27883 20.1916ZM3 12C3 7.02885 7.02885 3 12 3V1C5.92428 1 1 5.92428 1 12H3ZM6.85209 19.3722C4.52221 17.7422 3 15.0513 3 12H1C1 15.7353 2.86687 19.0249 5.70557 21.011L6.85209 19.3722ZM6.8889 15.7993L6.16834 19.6293L8.13386 19.999L8.85442 16.169L6.8889 15.7993ZM5.5 12C5.5 13.5532 6.04698 14.9796 6.95687 16.0961L8.50719 14.8325C7.87711 14.0594 7.5 13.0757 7.5 12H5.5ZM12 5.5C8.41061 5.5 5.5 8.41061 5.5 12H7.5C7.5 9.51518 9.51518 7.5 12 7.5V5.5ZM18.5 12C18.5 8.41061 15.5894 5.5 12 5.5V7.5C14.4848 7.5 16.5 9.51518 16.5 12H18.5ZM17.0431 16.0961C17.953 14.9796 18.5 13.5532 18.5 12H16.5C16.5 13.0757 16.1229 14.0594 15.4928 14.8325L17.0431 16.0961ZM17.8317 19.6293L17.1111 15.7993L15.1456 16.169L15.8661 19.999L17.8317 19.6293ZM21 12C21 15.0513 19.4778 17.7422 17.1479 19.3722L18.2944 21.011C21.1331 19.0249 23 15.7353 23 12H21ZM12 3C16.9712 3 21 7.02885 21 12H23C23 5.92428 18.0757 1 12 1V3ZM16.0002 12C16.0002 9.79142 14.2087 7.99996 12.0002 7.99996V9.99996C13.1041 9.99996 14.0002 10.896 14.0002 12H16.0002ZM14.0316 15.4432C15.206 14.75 16.0002 13.4691 16.0002 12H14.0002C14.0002 12.7306 13.6069 13.3714 13.0149 13.7209L14.0316 15.4432ZM15.2334 20.9693L14.1485 15.1074L12.1819 15.4714L13.2668 21.3333L15.2334 20.9693ZM12.0002 23C12.6822 23 13.343 22.9317 13.9805 22.8128L13.6139 20.8467C13.0859 20.9452 12.5481 21 12.0002 21V23ZM10.0167 22.8114C10.6557 22.9316 11.3176 23 12.0002 23V21C11.4518 21 10.914 20.9451 10.3864 20.8458L10.0167 22.8114ZM9.85183 15.1074L8.76672 20.9686L10.7333 21.3327L11.8184 15.4715L9.85183 15.1074ZM8.00018 12C8.00018 13.4691 8.79438 14.75 9.96876 15.4432L10.9854 13.7208C10.3934 13.3714 10.0002 12.7306 10.0002 12H8.00018ZM12.0002 7.99996C9.79164 7.99996 8.00018 9.79142 8.00018 12H10.0002C10.0002 10.896 10.8962 9.99996 12.0002 9.99996V7.99996ZM11.8184 15.4715C11.9642 14.684 11.5103 14.0307 10.9854 13.7208L9.96876 15.4432C9.94266 15.4278 9.91113 15.4007 9.88508 15.3514C9.85676 15.2978 9.83275 15.2105 9.85183 15.1074L11.8184 15.4715ZM10.3864 20.8458C10.6488 20.8952 10.7693 21.1383 10.7333 21.3327L8.76672 20.9686C8.61477 21.7894 9.12835 22.6443 10.0167 22.8114L10.3864 20.8458ZM15.8661 19.999C16.0643 21.0523 17.3044 21.7036 18.2944 21.011L17.1479 19.3722C17.2839 19.2771 17.458 19.2715 17.5896 19.3294C17.715 19.3847 17.8069 19.4977 17.8317 19.6293L15.8661 19.999ZM8.85442 16.169C8.94891 15.6668 8.79343 15.1837 8.50719 14.8325L6.95687 16.0961C6.90831 16.0365 6.86397 15.9318 6.8889 15.7993L8.85442 16.169ZM13.0149 13.7209C12.4901 14.0306 12.0362 14.684 12.1819 15.4714L14.1485 15.1074C14.1676 15.2105 14.1436 15.2978 14.1152 15.3514C14.0892 15.4007 14.0577 15.4278 14.0316 15.4432L13.0149 13.7209ZM15.4928 14.8325C15.2066 15.1837 15.0511 15.6668 15.1456 16.169L17.1111 15.7993C17.136 15.9318 17.0917 16.0365 17.0431 16.0961L15.4928 14.8325ZM13.2668 21.3333C13.2307 21.1383 13.3519 20.8955 13.6139 20.8467L13.9805 22.8128C14.8698 22.647 15.3856 21.7918 15.2334 20.9693L13.2668 21.3333ZM5.70557 21.011C6.69557 21.7036 7.9357 21.0523 8.13386 19.999L6.16834 19.6293C6.19309 19.4977 6.28501 19.3847 6.41039 19.3294C6.54197 19.2715 6.7161 19.2771 6.85209 19.3722L5.70557 21.011Z" fill="black"/>
</svg>
