<svg width="24" height="24" viewBox="0 0 24 24" fill="none" xmlns="http://www.w3.org/2000/svg">
<path d="M22.0024 3V7.49704C22.0024 7.77482 21.7772 8 21.4994 8V8C21.2995 8 21.1196 7.88104 21.0335 7.70059C19.4258 4.32948 15.9861 2 12.0024 2C6.81703 2 2.55348 5.94668 2.05176 11" stroke="black" stroke-width="2" stroke-linecap="round" stroke-linejoin="round"/>
<path d="M6 16.4V9.39365C6 9.06228 6.26863 8.79365 6.6 8.79365H7.77283C7.97677 8.79365 8.16674 8.69006 8.2772 8.51863L9.7228 6.27502C9.83326 6.10359 10.0232 6 10.2272 6H13.7728C13.9768 6 14.1667 6.10359 14.2772 6.27502L15.7228 8.51863C15.8333 8.69006 16.0232 8.79365 16.2272 8.79365H17.4C17.7314 8.79365 18 9.06228 18 9.39365V16.4C18 16.7314 17.7314 17 17.4 17H6.6C6.26863 17 6 16.7314 6 16.4Z" stroke="black" stroke-width="2" stroke-linecap="round" stroke-linejoin="round"/>
<path d="M12 14C13.1046 14 14 13.1046 14 12C14 10.8954 13.1046 10 12 10C10.8954 10 10 10.8954 10 12C10 13.1046 10.8954 14 12 14Z" stroke="black" stroke-width="2" stroke-linecap="round" stroke-linejoin="round"/>
<path d="M2.05035 21V16.503C2.05035 16.2252 2.27554 16 2.55332 16V16C2.75323 16 2.93314 16.119 3.0192 16.2994C4.62694 19.6705 8.06661 22 12.0504 22C17.2357 22 21.4993 18.0533 22.001 13" stroke="black" stroke-width="2" stroke-linecap="round" stroke-linejoin="round"/>
</svg>
