<svg width="24" height="24" viewBox="0 0 24 24" fill="none" xmlns="http://www.w3.org/2000/svg">
<path d="M21 7.35304L21 16.647C21 16.8649 20.8819 17.0656 20.6914 17.1715L12.2914 21.8381C12.1102 21.9388 11.8899 21.9388 11.7086 21.8381L3.30864 17.1715C3.11817 17.0656 3.00003 16.8649 3.00003 16.647L3.00001 7.35304C3.00001 7.13514 3.11815 6.93437 3.30863 6.82855L11.7086 2.16188C11.8899 2.06121 12.1102 2.06121 12.2914 2.16188L20.6914 6.82855C20.8819 6.93437 21 7.13514 21 7.35304Z" stroke="black" stroke-width="1.5" stroke-linecap="round" stroke-linejoin="round"/>
<path d="M3.52844 7.29357L11.7086 11.8381C11.8898 11.9388 12.1102 11.9388 12.2914 11.8381L20.5 7.27777" stroke="black" stroke-width="1.5" stroke-linecap="round" stroke-linejoin="round"/>
<path d="M12 21L12 12" stroke="black" stroke-width="1.5" stroke-linecap="round" stroke-linejoin="round"/>
</svg>
