<svg width="24" height="24" viewBox="0 0 24 24" fill="none" xmlns="http://www.w3.org/2000/svg">
<path d="M14.1208 14.1212C15.2924 12.9497 15.2924 11.0502 14.1208 9.87859C12.9492 8.70702 11.0497 8.70702 9.87815 9.87859C8.70658 11.0502 8.70658 12.9497 9.87815 14.1212C11.0497 15.2928 12.9492 15.2928 14.1208 14.1212Z" stroke="black" stroke-width="1.5" stroke-miterlimit="1.5" stroke-linecap="round" stroke-linejoin="round"/>
<path fill-rule="evenodd" clip-rule="evenodd" d="M9.87868 9.87869C9.87868 9.87869 7.07642 9.88788 5.63604 8.46447C4.22749 7.0545 2.77156 5.6707 4.22183 4.22183C5.59998 2.8451 7.03117 4.20698 8.46447 5.63605C9.8702 7.03753 9.87868 9.87869 9.87868 9.87869Z" stroke="black" stroke-width="1.5" stroke-miterlimit="1.5" stroke-linecap="round" stroke-linejoin="round"/>
<path fill-rule="evenodd" clip-rule="evenodd" d="M14.1216 9.87868C14.1216 9.87868 14.1124 7.07642 15.5358 5.63604C16.9458 4.22749 18.3296 2.77156 19.7785 4.22183C21.1552 5.59998 19.7933 7.03117 18.3643 8.46447C16.9628 9.8702 14.1216 9.87868 14.1216 9.87868Z" stroke="black" stroke-width="1.5" stroke-miterlimit="1.5" stroke-linecap="round" stroke-linejoin="round"/>
<path fill-rule="evenodd" clip-rule="evenodd" d="M9.87838 14.1213C9.87838 14.1213 9.88758 16.9236 8.46417 18.364C7.0542 19.7725 5.67039 21.2284 4.22153 19.7782C2.84479 18.4 4.20668 16.9688 5.63574 15.5355C7.03723 14.1298 9.87838 14.1213 9.87838 14.1213Z" stroke="black" stroke-width="1.5" stroke-miterlimit="1.5" stroke-linecap="round" stroke-linejoin="round"/>
<path fill-rule="evenodd" clip-rule="evenodd" d="M14.1213 14.1213C14.1213 14.1213 16.9236 14.1121 18.364 15.5355C19.7725 16.9455 21.2284 18.3293 19.7782 19.7782C18.4 21.1549 16.9688 19.793 15.5355 18.364C14.1298 16.9625 14.1213 14.1213 14.1213 14.1213Z" stroke="black" stroke-width="1.5" stroke-miterlimit="1.5" stroke-linecap="round" stroke-linejoin="round"/>
</svg>
