<svg width="24" height="24" viewBox="0 0 24 24" fill="none" xmlns="http://www.w3.org/2000/svg">
<path d="M9.87868 14.1218C11.0503 15.2934 12.9497 15.2934 14.1213 14.1218C15.2929 12.9502 15.2929 11.0507 14.1213 9.87913C12.9497 8.70756 11.0503 8.70756 9.87868 9.87913C8.70711 11.0507 8.7071 12.9502 9.87868 14.1218Z" stroke="black" stroke-width="1.5" stroke-miterlimit="1.5" stroke-linecap="round" stroke-linejoin="round"/>
<path d="M4.37076 16.7726C4.09132 16.3274 3.84879 15.8547 3.64986 15.3612C3.23116 14.323 3.00098 13.1891 3.00098 12.0012C3.00098 7.7649 5.93471 4.20879 9.8792 3.25392C10.5594 3.0891 11.2698 3.00195 12.0002 3.00195" stroke="black" stroke-width="1.49671" stroke-miterlimit="1.5" stroke-linecap="round" stroke-linejoin="round"/>
<path d="M19.7147 7.3667C20.5303 8.72132 20.9992 10.3061 20.9992 12.0008C20.9992 15.807 18.631 19.0638 15.2899 20.3786C14.2706 20.7793 13.1604 21 12 21" stroke="black" stroke-width="1.49671" stroke-miterlimit="1.5" stroke-linecap="round" stroke-linejoin="round"/>
<path fill-rule="evenodd" clip-rule="evenodd" d="M14.1216 9.87918C14.1216 9.87918 14.1124 7.07691 15.5358 5.63653C16.9458 4.22798 18.3296 2.77204 19.7785 4.22232C21.1552 5.60047 19.7933 7.03166 18.3643 8.46496C16.9628 9.87069 14.1216 9.87918 14.1216 9.87918Z" stroke="black" stroke-width="1.5" stroke-miterlimit="1.5" stroke-linecap="round" stroke-linejoin="round"/>
<path fill-rule="evenodd" clip-rule="evenodd" d="M9.87838 14.1208C9.87838 14.1208 9.88758 16.9231 8.46417 18.3635C7.0542 19.772 5.67039 21.228 4.22153 19.7777C2.84479 18.3995 4.20668 16.9683 5.63574 15.535C7.03723 14.1293 9.87838 14.1208 9.87838 14.1208Z" stroke="black" stroke-width="1.5" stroke-miterlimit="1.5" stroke-linecap="round" stroke-linejoin="round"/>
</svg>
