<svg width="40" height="40" viewBox="0 0 40 40" fill="none" xmlns="http://www.w3.org/2000/svg">
<path fill-rule="evenodd" clip-rule="evenodd" d="M21.457 37.0012C20.5509 37.5046 19.4492 37.5046 18.5431 37.0012L5.5431 29.779C4.59071 29.2499 4.00003 28.2461 4.00003 27.1566L4 12.8435C4 11.754 4.59067 10.7501 5.54307 10.221L18.5431 2.99881C19.4492 2.49543 20.5509 2.49543 21.457 2.99881L34.4569 10.221C35.4093 10.7501 36 11.754 36 12.8435L36 27.1565C36 28.2461 35.4093 29.2499 34.457 29.779L21.457 37.0012ZM19 34.9672V20.5884L6 13.3662L6.00003 27.1566C6.00003 27.5197 6.19692 27.8543 6.51438 28.0307L19 34.9672ZM21 34.9672L33.4857 28.0307C33.8031 27.8543 34 27.5197 34 27.1566L34 13.3662L21 20.5884V34.9672ZM20 18.8561L32.9409 11.6667L20.4857 4.74712C20.1836 4.57933 19.8164 4.57933 19.5144 4.74712L7.05913 11.6667L20 18.8561Z" fill="#FAFAFA"/>
</svg>
