<svg width="24" height="24" viewBox="0 0 24 24" fill="none" xmlns="http://www.w3.org/2000/svg">
<circle cx="12" cy="12" r="10" stroke="black" stroke-width="2"/>
<path d="M7.63237 3.06677C8.98543 3.35721 9.99975 4.56012 9.99975 5.99995C9.99975 7.6568 8.6566 8.99995 6.99975 8.99995C5.45095 8.99995 4.17628 7.82629 4.0166 6.31984" stroke="black" stroke-width="2"/>
<path d="M22 13.0505C21.3647 12.4022 20.4793 12 19.5 12C17.567 12 16 13.567 16 15.5C16 17.2632 17.3039 18.7219 19 18.9646" stroke="black" stroke-width="2"/>
<path d="M14.5 8.51L14.51 8.49889" stroke="black" stroke-width="2" stroke-linecap="round" stroke-linejoin="round"/>
<path d="M10 17C11.1046 17 12 16.1046 12 15C12 13.8954 11.1046 13 10 13C8.89543 13 8 13.8954 8 15C8 16.1046 8.89543 17 10 17Z" stroke="black" stroke-width="2" stroke-linecap="round" stroke-linejoin="round"/>
</svg>
