<svg width="24" height="24" viewBox="0 0 24 24" fill="none" xmlns="http://www.w3.org/2000/svg">
<path d="M17 20.6614C15.5291 21.5123 13.8214 21.9993 12 21.9993C10.1786 21.9993 8.47087 21.5123 7 20.6614L10 16C10 16 11 16.4 12 16.4C13 16.4 14 16 14 16L17 20.6614Z" stroke="black" stroke-width="2" stroke-linecap="round" stroke-linejoin="round"/>
<path d="M16.9977 3.33886C18.47 4.18724 19.7455 5.42266 20.6563 7.00007C21.567 8.57748 21.9991 10.2999 21.9977 11.9991L16.4607 11.7318C16.4607 11.7318 16.3071 10.6657 15.8071 9.79971C15.3071 8.93368 14.4607 8.26766 14.4607 8.26766L16.9977 3.33886Z" stroke="black" stroke-width="2" stroke-linecap="round" stroke-linejoin="round"/>
<path d="M1.99843 11.9995C1.99701 10.3002 2.42913 8.57783 3.33984 7.00042C4.25056 5.42301 5.52614 4.18758 6.99843 3.3392L9.53536 8.268C9.53536 8.268 8.68895 8.93402 8.18895 9.80005C7.68895 10.6661 7.53536 11.7321 7.53536 11.7321L1.99843 11.9995Z" stroke="black" stroke-width="2" stroke-linecap="round" stroke-linejoin="round"/>
<path d="M12 13.9993C10.8954 13.9993 10 13.1038 10 11.9993C10 10.8947 10.8954 9.99927 12 9.99927C13.1046 9.99927 14 10.8947 14 11.9993C14 13.1038 13.1046 13.9993 12 13.9993Z" stroke="black" stroke-width="2" stroke-linecap="round" stroke-linejoin="round"/>
</svg>
