<svg width="24" height="24" viewBox="0 0 24 24" fill="none" xmlns="http://www.w3.org/2000/svg">
<path d="M13.8786 7.6966L15.9999 9.81792C16.3904 10.2084 16.3904 10.8416 15.9999 11.2321L8.36317 18.8689C8.26981 18.9622 8.1589 19.0362 8.03681 19.0865L5.54018 20.1145C4.30728 20.6221 3.07438 19.3892 3.58204 18.1563L4.61007 15.6597C4.66034 15.5376 4.73428 15.4267 4.82764 15.3334L12.4644 7.6966C12.8549 7.30607 13.4881 7.30607 13.8786 7.6966Z" stroke="black" stroke-width="2" stroke-linecap="round" stroke-linejoin="round"/>
<path d="M13.8785 3.45395L15.9998 5.57527M20.2424 9.81791L18.1211 7.69659M15.9998 5.57527L17.414 4.16106C17.8045 3.77054 18.4377 3.77054 18.8282 4.16106L19.5353 4.86817C19.9259 5.25869 19.9259 5.89186 19.5353 6.28238L18.1211 7.69659M15.9998 5.57527L18.1211 7.69659" stroke="black" stroke-width="2" stroke-linecap="round" stroke-linejoin="round"/>
</svg>
