<svg width="24" height="24" viewBox="0 0 24 24" fill="none" xmlns="http://www.w3.org/2000/svg">
<path d="M5.21186 15.1113L2.52485 12.4243C2.29054 12.1899 2.29054 11.8101 2.52485 11.5757L5.21186 8.88873C5.44617 8.65442 5.82607 8.65442 6.06038 8.88873L8.74739 11.5757C8.9817 11.8101 8.9817 12.1899 8.74739 12.4243L6.06038 15.1113C5.82607 15.3456 5.44617 15.3456 5.21186 15.1113Z" stroke="black" stroke-width="2"/>
<path d="M11.5756 21.4752L8.88862 18.7882C8.6543 18.5539 8.6543 18.174 8.88862 17.9397L11.5756 15.2527C11.8099 15.0184 12.1898 15.0184 12.4242 15.2527L15.1112 17.9397C15.3455 18.174 15.3455 18.5539 15.1112 18.7882L12.4242 21.4752C12.1898 21.7095 11.8099 21.7095 11.5756 21.4752Z" stroke="black" stroke-width="2"/>
<path d="M11.5756 8.74732L8.88862 6.06031C8.6543 5.826 8.6543 5.4461 8.88862 5.21178L11.5756 2.52478C11.8099 2.29046 12.1898 2.29046 12.4242 2.52478L15.1112 5.21178C15.3455 5.4461 15.3455 5.826 15.1112 6.06031L12.4242 8.74732C12.1898 8.98163 11.8099 8.98163 11.5756 8.74732Z" stroke="black" stroke-width="2"/>
<path d="M17.9399 15.1113L15.2529 12.4243C15.0186 12.1899 15.0186 11.8101 15.2529 11.5757L17.9399 8.88873C18.1742 8.65442 18.5541 8.65442 18.7884 8.88873L21.4754 11.5757C21.7097 11.8101 21.7097 12.1899 21.4754 12.4243L18.7884 15.1113C18.5541 15.3456 18.1742 15.3456 17.9399 15.1113Z" stroke="black" stroke-width="2"/>
</svg>
