<svg width="24" height="24" viewBox="0 0 24 24" fill="none" xmlns="http://www.w3.org/2000/svg">
<g clip-path="url(#clip0_1204_400)">
<path d="M17.6744 11.4075L15.7691 17.1233C15.7072 17.309 15.5586 17.4529 15.3709 17.5087L3.69348 20.9803C3.22819 21.1186 2.79978 20.676 2.95328 20.2155L6.74467 8.84131C6.79981 8.67588 6.92419 8.54263 7.08543 8.47624L12.472 6.25822C12.696 6.166 12.9535 6.21749 13.1248 6.38876L17.5294 10.7935C17.6901 10.9542 17.7463 11.1919 17.6744 11.4075Z" stroke="black" stroke-width="2" stroke-linecap="round" stroke-linejoin="round"/>
<path d="M3.2959 20.6016L9.65986 14.2377" stroke="black" stroke-width="2" stroke-linecap="round" stroke-linejoin="round"/>
<path d="M17.7915 11.0557L20.6199 8.22724C21.401 7.44619 21.401 6.17986 20.6199 5.39881L18.4986 3.27749C17.7176 2.49644 16.4512 2.49644 15.6702 3.27749L12.8418 6.10592" stroke="black" stroke-width="2" stroke-linecap="round" stroke-linejoin="round"/>
<path d="M11.7814 12.1163C11.1956 11.5305 10.2458 11.5305 9.66004 12.1163C9.07426 12.7021 9.07426 13.6518 9.66004 14.2376C10.2458 14.8234 11.1956 14.8234 11.7814 14.2376C12.3671 13.6518 12.3671 12.7021 11.7814 12.1163Z" stroke="black" stroke-width="2" stroke-linecap="round" stroke-linejoin="round"/>
</g>
<defs>
<clipPath id="clip0_1204_400">
<rect width="24" height="24" fill="white"/>
</clipPath>
</defs>
</svg>
