<svg width="24" height="24" viewBox="0 0 24 24" fill="none" xmlns="http://www.w3.org/2000/svg">
<path d="M2 20V9C2 7.89543 2.89543 7 4 7H20C21.1046 7 22 7.89543 22 9V20C22 21.1046 21.1046 22 20 22H4C2.89543 22 2 21.1046 2 20Z" stroke="black" stroke-width="2"/>
<path d="M13.6567 12.8284L10.8283 15.6569" stroke="black" stroke-width="2" stroke-linecap="round" stroke-linejoin="round"/>
<path d="M16.4852 12.8284C15.7041 13.6095 14.4378 13.6095 13.6567 12.8284C12.8757 12.0474 12.8757 10.781 13.6567 10" stroke="black" stroke-width="2" stroke-linecap="round" stroke-linejoin="round"/>
<path d="M10.8283 18.4853C11.6093 17.7043 11.6093 16.4379 10.8283 15.6569C10.0472 14.8758 8.7809 14.8758 7.99985 15.6569" stroke="black" stroke-width="2" stroke-linecap="round" stroke-linejoin="round"/>
<path d="M8.5 2.5L12 6L15.5 2.5" stroke="black" stroke-width="2" stroke-linecap="round" stroke-linejoin="round"/>
</svg>
