<svg width="40" height="40" viewBox="0 0 40 40" fill="none" xmlns="http://www.w3.org/2000/svg">
<path d="M31.6667 36.6667H11.6667M8.33332 36.6667H11.6667M11.6667 36.6667V31.6667" stroke="white" stroke-width="2" stroke-linecap="round" stroke-linejoin="round"/>
<path d="M31.6667 26.6667H16.6667" stroke="white" stroke-width="2" stroke-linecap="round" stroke-linejoin="round"/>
<path d="M26.6667 3.33331L20 3.33331" stroke="white" stroke-width="2" stroke-linecap="round" stroke-linejoin="round"/>
<path d="M20 11.6667C15 11.6667 11.6667 13.3333 11.6667 18.3334V21.6667" stroke="white" stroke-width="2" stroke-linecap="round" stroke-linejoin="round"/>
<path d="M26.6667 7.26667V19.4C26.6667 19.7314 26.398 20 26.0667 20H20.6C20.2686 20 20 19.7314 20 19.4V7.26667C20 6.9353 20.2686 6.66667 20.6 6.66667H26.0667C26.398 6.66667 26.6667 6.9353 26.6667 7.26667Z" stroke="white" stroke-width="2" stroke-linecap="round" stroke-linejoin="round"/>
<path d="M11.6667 31.6667C8.90523 31.6667 6.66666 29.4281 6.66666 26.6667C6.66666 23.9053 8.90523 21.6667 11.6667 21.6667C14.4281 21.6667 16.6667 23.9053 16.6667 26.6667C16.6667 29.4281 14.4281 31.6667 11.6667 31.6667Z" stroke="white" stroke-width="2" stroke-linecap="round" stroke-linejoin="round"/>
</svg>
