<svg width="40" height="40" viewBox="0 0 40 40" fill="none" xmlns="http://www.w3.org/2000/svg">
<path d="M34.4806 5H27.4889L28.3222 13.3333C28.3222 13.3333 29.9889 15 32.4889 15C34.4511 15 35.7289 13.9732 36.1877 13.5315C36.3136 13.4104 36.3612 13.2342 36.3325 13.0619L35.0724 5.50136C35.0242 5.21205 34.7739 5 34.4806 5Z" stroke="white" stroke-width="2"/>
<path d="M27.4889 5L28.3222 13.3333C28.3222 13.3333 26.6555 15 24.1555 15C21.6555 15 19.9889 13.3333 19.9889 13.3333V5H27.4889Z" stroke="white" stroke-width="2"/>
<path d="M19.9888 5V13.3333C19.9888 13.3333 18.3222 15 15.8222 15C13.3222 15 11.6555 13.3333 11.6555 13.3333L12.4889 5H19.9888Z" stroke="white" stroke-width="2"/>
<path d="M12.4889 5H5.49717C5.20387 5 4.95355 5.21205 4.90533 5.50136L3.64524 13.0619C3.61652 13.2342 3.66417 13.4104 3.79001 13.5315C4.24889 13.9732 5.5266 15 7.48886 15C9.98886 15 11.6556 13.3333 11.6556 13.3333L12.4889 5Z" stroke="white" stroke-width="2"/>
<path d="M5 15V33C5 34.1046 5.89543 35 7 35H33C34.1046 35 35 34.1046 35 33V15" stroke="white" stroke-width="2"/>
<path d="M24.7222 35V25C24.7222 23.1591 23.2298 21.6667 21.3889 21.6667H18.0555C16.2146 21.6667 14.7222 23.1591 14.7222 25V35" stroke="white" stroke-width="1.5" stroke-miterlimit="16"/>
</svg>
