<svg width="40" height="40" viewBox="0 0 40 40" fill="none" xmlns="http://www.w3.org/2000/svg">
<path d="M27.3947 15.337L23.3334 28.3334L16.6667 28.3334L12.6053 15.337C12.0175 13.4561 12.3909 11.4064 13.6041 9.85351L19.5272 2.27189C19.7674 1.96441 20.2326 1.9644 20.4728 2.27189L26.396 9.8535C27.6092 11.4064 27.9825 13.4561 27.3947 15.337Z" stroke="#FAFAFA" stroke-width="2" stroke-linecap="round" stroke-linejoin="round"/>
<path d="M16.6666 33.3333C16.6666 36.6666 20 38.3333 20 38.3333C20 38.3333 23.3333 36.6666 23.3333 33.3333" stroke="#FAFAFA" stroke-width="2" stroke-linecap="round" stroke-linejoin="round"/>
<path d="M14.1667 20.8334C8.33335 25 11.6667 31.6667 11.6667 31.6667L16.6667 28.3334" stroke="#FAFAFA" stroke-width="2" stroke-linecap="round" stroke-linejoin="round"/>
<path d="M26.5519 20.8334C32.3853 25 29.0519 31.6667 29.0519 31.6667L24.0519 28.3334" stroke="#FAFAFA" stroke-width="2" stroke-linecap="round" stroke-linejoin="round"/>
<path d="M20 18.3334C18.159 18.3334 16.6666 16.841 16.6666 15C16.6666 13.1591 18.159 11.6667 20 11.6667C21.8409 11.6667 23.3333 13.1591 23.3333 15C23.3333 16.841 21.8409 18.3334 20 18.3334Z" stroke="#FAFAFA" stroke-width="2" stroke-linecap="round" stroke-linejoin="round"/>
</svg>
