<svg width="40" height="40" viewBox="0 0 40 40" fill="none" xmlns="http://www.w3.org/2000/svg">
<path fill-rule="evenodd" clip-rule="evenodd" d="M15.0537 15.0866L10.9509 10.9838L8.00171 11.9669C7.55706 12.1151 7.06913 11.9346 6.82799 11.5327L3.29246 5.64016C3.05637 5.24668 3.11837 4.74302 3.44284 4.41855L5.79987 2.06153C6.12433 1.73706 6.62799 1.67506 7.02147 1.91114L12.914 5.44668C13.3159 5.68782 13.4964 6.17575 13.3482 6.6204L12.3651 9.56961L14.9759 12.1803C15.1804 9.8299 16.0586 7.52735 17.8112 5.77473C19.4448 4.14116 21.7221 3.18265 23.9548 2.85824C26.1767 2.53541 28.5017 2.82043 30.2287 3.85658C30.4927 4.01501 30.669 4.28626 30.7067 4.59189C30.7443 4.89752 30.639 5.20344 30.4213 5.42118L25.6095 10.2329L25.2798 13.8625L28.9093 13.5328L33.7211 8.72101C33.9388 8.50327 34.2448 8.39799 34.5504 8.43561C34.856 8.47324 35.1273 8.64957 35.2857 8.91362C36.3219 10.6405 36.6069 12.9656 36.284 15.1875C35.9596 17.4202 35.0011 19.6975 33.3676 21.3311C32.4932 22.2055 31.4819 22.8622 30.3961 23.3262L36.7684 29.6985C37.9399 30.8701 37.9399 32.7696 36.7684 33.9412L34.8828 35.8268C33.7112 36.9984 31.8117 36.9984 30.6401 35.8268L20.0419 25.2286L9.44372 35.8268C8.27215 36.9984 6.37266 36.9984 5.20108 35.8268L3.31546 33.9412C2.14389 32.7696 2.14389 30.8701 3.31546 29.6985L15.5945 17.4195C15.348 16.6756 15.1649 15.8908 15.0537 15.0866ZM17.5599 18.2652C17.7671 17.9804 17.8054 17.611 17.6746 17.2949C16.3733 13.9566 16.6946 9.7198 19.2254 7.18895C20.491 5.92333 22.3385 5.11407 24.2424 4.83746C25.5901 4.64164 26.8925 4.72272 27.971 5.04307L23.9393 9.07476C23.7738 9.24019 23.6716 9.4584 23.6505 9.69139L23.1795 14.8765C23.1526 15.172 23.2584 15.4642 23.4682 15.674C23.6781 15.8839 23.9703 15.9897 24.2658 15.9628L29.4509 15.4918C29.6839 15.4706 29.9021 15.3685 30.0675 15.203L34.0992 11.1713C34.4196 12.2497 34.5007 13.5522 34.3048 14.8999C34.0282 16.8037 33.219 18.6512 31.9533 19.9169C29.4226 22.4476 25.1861 22.769 21.8478 21.4678C21.8032 21.4494 21.7576 21.4343 21.7113 21.4225C21.5559 21.3828 21.3976 21.3821 21.2483 21.4153C21.1123 21.4453 20.9814 21.5039 20.8652 21.5911C20.8213 21.6239 20.78 21.6604 20.7417 21.7004L8.02951 34.4126C7.63898 34.8031 7.00582 34.8031 6.6153 34.4126L4.72968 32.527C4.33915 32.1364 4.33915 31.5033 4.72968 31.1128L17.441 18.4014C17.485 18.3595 17.5247 18.3138 17.5599 18.2652ZM21.7227 23.5478L21.4561 23.8144L32.0543 34.4126C32.4449 34.8031 33.078 34.8031 33.4685 34.4126L35.3542 32.527C35.7447 32.1364 35.7447 31.5033 35.3542 31.1128L28.2296 23.9882C26.0435 24.4173 23.734 24.2143 21.7227 23.5478ZM10.4304 9.04914L8.13026 9.81586L5.40915 5.28067L6.66199 4.02784L11.1972 6.74895L10.4304 9.04914Z" fill="white"/>
</svg>
