<svg width="40" height="40" viewBox="0 0 40 40" fill="none" xmlns="http://www.w3.org/2000/svg">
<path d="M23.3333 15.0167L23.35 14.9981" stroke="#FAFAFA" stroke-width="2" stroke-linecap="round" stroke-linejoin="round"/>
<path d="M13.3333 13.35L13.35 13.3315" stroke="#FAFAFA" stroke-width="2" stroke-linecap="round" stroke-linejoin="round"/>
<path d="M13.3333 23.35L13.35 23.3315" stroke="#FAFAFA" stroke-width="2" stroke-linecap="round" stroke-linejoin="round"/>
<path d="M9.99998 31.6666L3.56957 4.33742C3.46418 3.88949 3.88146 3.49453 4.32292 3.62437L31.6666 11.6666" stroke="#FAFAFA" stroke-width="2"/>
<path d="M36.7541 13.9805C37.1113 12.5517 36.2426 11.1039 34.8138 10.7467C33.385 10.3895 31.9372 11.2582 31.58 12.687C30.9115 15.3611 28.3619 19.5343 24.4689 23.4273C20.6144 27.2818 15.8295 30.4698 11.0674 31.5687C9.63237 31.8999 8.7375 33.3317 9.06866 34.7667C9.39982 36.2017 10.8316 37.0966 12.2667 36.7655C18.338 35.3644 23.9697 31.4689 28.2402 27.1985C32.4722 22.9665 35.7559 17.9731 36.7541 13.9805Z" stroke="#FAFAFA" stroke-width="2" stroke-linecap="round"/>
</svg>
