<svg width="40" height="40" viewBox="0 0 40 40" fill="none" xmlns="http://www.w3.org/2000/svg">
<path d="M13.3333 24.2857L9.84403 20.9625C9.0202 20.1779 7.70872 20.2376 6.95956 21.0938L6.1929 21.97C5.51585 22.7437 5.53578 23.9048 6.23898 24.6549L16.9074 36.0345C17.2855 36.4378 17.8123 36.6666 18.3651 36.6666C20.0646 36.6666 23.3843 36.6666 26.6667 36.6666C30.6667 36.6666 33.3333 33.3333 33.3333 29.9999C33.3333 29.9999 33.3333 29.9999 33.3333 29.9999C33.3333 29.9999 33.3333 13.5714 33.3333 10.7142" stroke="#FAFAFA" stroke-width="2" stroke-linecap="round" stroke-linejoin="round"/>
<path d="M13.3334 24.2857V5.33331C13.3334 4.22874 14.2288 3.33331 15.3334 3.33331H16.3334C17.4379 3.33331 18.3334 4.22827 18.3334 5.33284C18.3334 7.33152 18.3334 10.4015 18.3334 12.5C18.3334 14.3596 18.3334 16.6666 18.3334 16.6666" stroke="#FAFAFA" stroke-width="2" stroke-linecap="round" stroke-linejoin="round"/>
<path d="M18.3334 8.33344C18.3334 8.33344 18.3334 6.02641 18.3334 4.16677C18.3334 0.35725 23.3334 0.35725 23.3334 4.16677C23.3334 4.16677 23.3334 4.16677 23.3334 4.16677C23.3334 4.16677 23.3334 5.10437 23.3334 5.4763C23.3334 6.96401 23.3334 16.6668 23.3334 16.6668" stroke="#FAFAFA" stroke-width="2" stroke-linecap="round" stroke-linejoin="round"/>
<path d="M23.3334 8.3333C23.3334 8.3333 23.3334 6.96387 23.3334 5.47616C23.3334 1.66664 28.3334 1.66664 28.3334 5.47616C28.3334 5.84809 28.3334 7.009 28.3334 7.38092C28.3334 8.12478 28.3334 16.6666 28.3334 16.6666" stroke="#FAFAFA" stroke-width="2" stroke-linecap="round" stroke-linejoin="round"/>
<path d="M28.3334 11.6666C28.3334 11.6666 28.3334 11.4581 28.3334 10.7142C28.3334 6.90467 33.3334 6.90467 33.3334 10.7142" stroke="#FAFAFA" stroke-width="2" stroke-linecap="round" stroke-linejoin="round"/>
</svg>
