<svg width="40" height="40" viewBox="0 0 40 40" fill="none" xmlns="http://www.w3.org/2000/svg">
<path d="M3.33331 26.6667L3.33331 31.6667" stroke="#FAFAFA" stroke-width="2" stroke-linecap="round" stroke-linejoin="round"/>
<path d="M6.66665 15V10.3333C6.66665 9.22876 7.56208 8.33333 8.66665 8.33333L31.3333 8.33333C32.4379 8.33333 33.3333 9.22876 33.3333 10.3333V15" stroke="#FAFAFA" stroke-width="2" stroke-linecap="round" stroke-linejoin="round"/>
<path d="M33.3333 15C31.4924 15 30 16.4924 30 18.3333V21.6667H9.99998V18.3333C9.99998 16.4924 8.5076 15 6.66665 15C4.8257 15 3.33331 16.4924 3.33331 18.3333V28.3333H36.6666V18.3333C36.6666 16.4924 35.1743 15 33.3333 15Z" stroke="#FAFAFA" stroke-width="2" stroke-linecap="round" stroke-linejoin="round"/>
<path d="M36.6667 26.6667L36.6667 31.6667" stroke="#FAFAFA" stroke-width="2" stroke-linecap="round" stroke-linejoin="round"/>
</svg>
