<svg width="40" height="40" viewBox="0 0 40 40" fill="none" xmlns="http://www.w3.org/2000/svg">
<path fill-rule="evenodd" clip-rule="evenodd" d="M7.35083 20.8333C7.35083 19.0844 8.76859 17.6666 10.5175 17.6666C12.2664 17.6666 13.6842 19.0844 13.6842 20.8333C13.6842 22.5822 12.2664 24 10.5175 24C8.76859 24 7.35083 22.5822 7.35083 20.8333ZM10.5175 15.6666C7.66403 15.6666 5.35083 17.9798 5.35083 20.8333C5.35083 22.386 6.03573 23.7787 7.11989 24.7258C4.23473 26.0234 2.22583 28.9229 2.22583 32.2916V33.3333C2.22583 33.8856 2.67355 34.3333 3.22583 34.3333C3.77811 34.3333 4.22583 33.8856 4.22583 33.3333V32.2916C4.22583 28.8168 7.0427 26 10.5175 26C13.9923 26 16.8092 28.8168 16.8092 32.2916V33.3333C16.8092 33.8856 17.2569 34.3333 17.8092 34.3333C18.3614 34.3333 18.8092 33.8856 18.8092 33.3333V32.2916C18.8092 28.9229 16.8003 26.0234 13.9151 24.7258C14.9993 23.7787 15.6842 22.386 15.6842 20.8333C15.6842 17.9798 13.371 15.6666 10.5175 15.6666Z" fill="#FAFAFA"/>
<path fill-rule="evenodd" clip-rule="evenodd" d="M26.7056 14.3817C26.7056 12.6328 28.1234 11.215 29.8723 11.215C31.6212 11.215 33.039 12.6328 33.039 14.3817C33.039 16.1306 31.6212 17.5484 29.8723 17.5484C28.1234 17.5484 26.7056 16.1306 26.7056 14.3817ZM33.2699 18.2742C34.3541 17.3271 35.039 15.9344 35.039 14.3817C35.039 11.5282 32.7258 9.21503 29.8723 9.21503C27.0188 9.21503 24.7056 11.5282 24.7056 14.3817C24.7056 15.9344 25.3905 17.3271 26.4747 18.2742C23.5895 19.5718 21.5806 22.4713 21.5806 25.84V26.8817C21.5806 27.434 22.0283 27.8817 22.5806 27.8817C23.1329 27.8817 23.5806 27.434 23.5806 26.8817V25.84C23.5806 22.3652 26.3975 19.5484 29.8723 19.5484C33.3471 19.5484 36.164 22.3652 36.164 25.84V26.8817C36.164 27.434 36.6117 27.8817 37.164 27.8817C37.7162 27.8817 38.164 27.434 38.164 26.8817V25.84C38.164 22.4713 36.1551 19.5718 33.2699 18.2742Z" fill="#FAFAFA"/>
</svg>
