<svg width="24" height="24" viewBox="0 0 24 24" fill="none" xmlns="http://www.w3.org/2000/svg">
<path d="M14 9.01L14.01 8.99889" stroke="black" stroke-width="2" stroke-linecap="round" stroke-linejoin="round"/>
<path d="M8 8.01L8.01 7.99889" stroke="black" stroke-width="2" stroke-linecap="round" stroke-linejoin="round"/>
<path d="M8 14.01L8.01 13.9989" stroke="black" stroke-width="2" stroke-linecap="round" stroke-linejoin="round"/>
<path d="M6 19L2.23626 3.0041C2.13087 2.55618 2.54815 2.16122 2.98961 2.29106L19 7" stroke="black" stroke-width="2"/>
<path d="M22.4405 8.48531C22.7084 7.41372 22.0569 6.32785 20.9853 6.05995C19.9137 5.79205 18.8278 6.44358 18.5599 7.51517C18.1835 9.02074 16.7089 11.4632 14.3985 13.7735C12.117 16.055 9.30956 17.9147 6.5505 18.5515C5.47422 18.7998 4.80307 19.8737 5.05144 20.95C5.29981 22.0262 6.37366 22.6974 7.44994 22.449C11.191 21.5857 14.6335 19.1954 17.2269 16.6019C19.7916 14.0373 21.8169 10.9798 22.4405 8.48531Z" stroke="black" stroke-width="2" stroke-linecap="round"/>
</svg>
